<?xml version="1.0" encoding="utf-8"?>
<!-- Generator: Adobe Illustrator 23.0.4, SVG Export Plug-In . SVG Version: 6.00 Build 0)  -->
<svg version="1.1" id="Capa_1" xmlns="http://www.w3.org/2000/svg" xmlns:xlink="http://www.w3.org/1999/xlink" x="0px" y="0px"
	 viewBox="0 0 792 612" style="enable-background:new 0 0 792 612;" xml:space="preserve">
<style type="text/css">
	.st0{fill:#212121;}
	.st1{fill:#FFFFFF;}
	.st2{fill:none;stroke:#212121;stroke-width:0;stroke-linecap:round;stroke-linejoin:round;}
</style>
<g>
	<path class="st0" d="M447.95,247.69c0.97-1,1.45-2.64,1.45-4.91v-3.61c0-2.27-0.49-3.91-1.45-4.91c-0.97-1-2.42-1.5-4.36-1.5h-5.41
		v16.43h5.41C445.53,249.19,446.98,248.69,447.95,247.69z"/>
	<polygon class="st0" points="359.74,239.27 358.74,239.27 354.63,259.31 363.84,259.31 	"/>
	<path class="st0" d="M619.94,154.56L415.82,36.71c-10.57-6.1-27.85-6.1-38.42,0L173.29,154.56c-10.57,6.1-19.21,21.07-19.21,33.27
		v235.69c0,12.2,8.64,27.17,19.21,33.27l204.11,117.84c10.57,6.1,27.85,6.1,38.42,0l204.11-117.84
		c10.57-6.1,19.21-21.07,19.21-33.27V187.83C639.15,175.63,630.5,160.66,619.94,154.56z M404.12,277.84h6.01v-45.08h-6.01v-16.43
		h46.99c4.07,0,7.76,0.4,11.07,1.2c3.31,0.8,6.09,2.09,8.37,3.86c2.27,1.77,4.02,4.09,5.26,6.96c1.23,2.87,1.85,6.38,1.85,10.52
		c0,4.41-0.89,8.25-2.65,11.52c-1.77,3.27-4.36,5.58-7.76,6.91l0.1,1c6.41,1,9.62,4.94,9.62,11.82v7.71h4.71v16.43H449.9v-23.54
		c0-2-0.22-3.62-0.65-4.86c-0.44-1.23-1.14-2.17-2.1-2.81c-0.97-0.63-2.19-1.07-3.66-1.3c-1.47-0.23-3.24-0.35-5.31-0.35v16.43h6.61
		v16.43h-40.67V277.84z M326.58,277.84l16.93-61.51h36.47l16.93,61.51h4.01v16.43h-34.06l-5.21-3.01v-13.42h6.01l-1.7-7.91h-13.52
		l-1.6,7.91h6.01v10.64l-13.12-7.58c-1.91-1.11-3.93-1.34-5.28-1.34s-3.36,0.23-5.28,1.34l-10.59,6.11v-9.18H326.58z M367.37,331.27
		c0,1.63-1.16,3.63-2.57,4.45L341,349.46c-0.71,0.41-1.64,0.61-2.57,0.61c-0.93,0-1.86-0.2-2.57-0.61l-23.8-13.74
		c-1.41-0.82-2.57-2.82-2.57-4.45v-27.48c0-1.63,1.16-3.63,2.57-4.45l23.8-13.74c0.71-0.41,1.64-0.61,2.57-0.61
		c0.93,0,1.86,0.2,2.57,0.61l23.8,13.74c1.41,0.82,2.57,2.82,2.57,4.45V331.27z M236.21,277.84h6.01v-45.08h-6.01v-16.43h39.17
		v16.43h-5.11v15.23h15.03v-15.23h-5.11v-16.43h39.17v16.43h-6.01v45.08h6.01v11.03l-9.35,5.4h-29.82v-16.43h5.11v-16.53h-15.03
		v16.53h5.11v16.43h-39.17V277.84z M309.76,399.68h-73.53v-19.17h7.01v-52.6h-7.01v-19.17h50.5v19.17h-10.75v52.6h10.52v-10.75
		h23.26V399.68z M361.2,399.68h-46.76v-19.17h7.01v-33.12l11.71,6.76c1.91,1.11,3.93,1.34,5.28,1.34s3.36-0.23,5.28-1.34l10.47-6.05
		v32.41h7.01V399.68z M473.42,327.9h-7.01v71.77h-32.85l-34.25-52.72v33.55h7.01v19.17H365.4v-19.17h7.01v-46.66
		c0.23-0.85,0.36-1.72,0.36-2.58v-22.54h35.99l30.74,46.99V327.9h-7.01v-19.17h40.91V327.9z M557.23,344.03h-26.18V327.9H516.9
		v18.47h10.29v13.33H516.9v20.81h14.14v-18.47h26.18v37.64h-80.07v-19.17h7.01v-52.6h-7.01v-19.17h80.07V344.03z M556.4,273.99
		c-1.8,5.11-4.36,9.27-7.66,12.47c-3.31,3.21-7.33,5.54-12.07,7.01c-4.74,1.47-10.02,2.2-15.83,2.2s-11.09-0.74-15.83-2.2
		c-4.74-1.47-8.77-3.81-12.07-7.01c-3.31-3.21-5.86-7.36-7.66-12.47c-1.8-5.11-2.7-11.34-2.7-18.68c0-7.28,0.9-13.49,2.7-18.63
		c1.8-5.14,4.36-9.32,7.66-12.52c3.31-3.21,7.33-5.54,12.07-7.01c4.74-1.47,10.02-2.2,15.83-2.2s11.09,0.74,15.83,2.2
		c4.74,1.47,8.77,3.81,12.07,7.01c3.31,3.21,5.86,7.38,7.66,12.52c1.8,5.14,2.7,11.36,2.7,18.63
		C559.1,262.65,558.2,268.88,556.4,273.99z"/>
	<path class="st0" d="M520.83,232.76c-2.27,0-3.97,0.59-5.11,1.75c-1.14,1.17-1.7,3.06-1.7,5.66v30.26c0,2.6,0.57,4.49,1.7,5.66
		c1.14,1.17,2.84,1.75,5.11,1.75c2.27,0,3.97-0.58,5.11-1.75c1.13-1.17,1.7-3.06,1.7-5.66v-30.26c0-2.6-0.57-4.49-1.7-5.66
		C524.81,233.35,523.1,232.76,520.83,232.76z"/>
	<polygon class="st1" points="275.38,277.84 270.27,277.84 270.27,261.31 285.3,261.31 285.3,277.84 280.19,277.84 280.19,294.27 
		310.01,294.27 319.36,288.88 319.36,277.84 313.35,277.84 313.35,232.76 319.36,232.76 319.36,216.33 280.19,216.33 280.19,232.76 
		285.3,232.76 285.3,247.99 270.27,247.99 270.27,232.76 275.38,232.76 275.38,216.33 236.21,216.33 236.21,232.76 242.22,232.76 
		242.22,277.84 236.21,277.84 236.21,294.27 275.38,294.27 	"/>
	<path class="st1" d="M333.16,280.91c1.91-1.11,3.93-1.34,5.28-1.34s3.36,0.23,5.28,1.34l13.12,7.58v-10.64h-6.01l1.6-7.91h13.52
		l1.7,7.91h-6.01v13.42l5.21,3.01h34.06v-16.43h-4.01l-16.93-61.51h-36.47l-16.93,61.51h-4.01v9.18L333.16,280.91z M358.74,239.27h1
		l4.11,20.04h-9.22L358.74,239.27z"/>
	<path class="st1" d="M444.79,277.84h-6.61v-16.43c2.07,0,3.84,0.12,5.31,0.35c1.47,0.23,2.69,0.67,3.66,1.3
		c0.97,0.64,1.67,1.57,2.1,2.81c0.43,1.24,0.65,2.86,0.65,4.86v23.54h31.76v-16.43h-4.71v-7.71c0-6.88-3.21-10.82-9.62-11.82l-0.1-1
		c3.41-1.34,5.99-3.64,7.76-6.91c1.77-3.27,2.65-7.11,2.65-11.52c0-4.14-0.62-7.65-1.85-10.52c-1.24-2.87-2.99-5.19-5.26-6.96
		c-2.27-1.77-5.06-3.06-8.37-3.86c-3.31-0.8-7-1.2-11.07-1.2h-46.99v16.43h6.01v45.08h-6.01v16.43h40.67V277.84z M438.18,232.76
		h5.41c1.94,0,3.39,0.5,4.36,1.5c0.97,1,1.45,2.64,1.45,4.91v3.61c0,2.27-0.49,3.91-1.45,4.91c-0.97,1-2.42,1.5-4.36,1.5h-5.41
		V232.76z"/>
	<path class="st1" d="M548.73,224.15c-3.31-3.21-7.33-5.54-12.07-7.01c-4.74-1.47-10.02-2.2-15.83-2.2s-11.09,0.74-15.83,2.2
		c-4.74,1.47-8.77,3.81-12.07,7.01c-3.31,3.21-5.86,7.38-7.66,12.52c-1.8,5.14-2.7,11.36-2.7,18.63c0,7.35,0.9,13.57,2.7,18.68
		c1.8,5.11,4.36,9.27,7.66,12.47c3.31,3.21,7.33,5.54,12.07,7.01c4.74,1.47,10.02,2.2,15.83,2.2s11.09-0.74,15.83-2.2
		c4.74-1.47,8.77-3.81,12.07-7.01c3.31-3.21,5.86-7.36,7.66-12.47c1.8-5.11,2.7-11.34,2.7-18.68c0-7.28-0.9-13.49-2.7-18.63
		C554.6,231.53,552.04,227.35,548.73,224.15z M527.65,270.43c0,2.6-0.57,4.49-1.7,5.66c-1.14,1.17-2.84,1.75-5.11,1.75
		c-2.27,0-3.97-0.58-5.11-1.75c-1.14-1.17-1.7-3.06-1.7-5.66v-30.26c0-2.6,0.57-4.49,1.7-5.66c1.14-1.17,2.84-1.75,5.11-1.75
		c2.27,0,3.97,0.59,5.11,1.75c1.13,1.17,1.7,3.06,1.7,5.66V270.43z"/>
	<polygon class="st1" points="286.5,380.51 275.98,380.51 275.98,327.9 286.73,327.9 286.73,308.73 236.23,308.73 236.23,327.9 
		243.25,327.9 243.25,380.51 236.23,380.51 236.23,399.68 309.76,399.68 309.76,369.75 286.5,369.75 	"/>
	<path class="st1" d="M354.18,348.1l-10.47,6.05c-1.91,1.11-3.93,1.34-5.28,1.34s-3.36-0.23-5.28-1.34l-11.71-6.76v33.12h-7.01
		v19.17h46.76v-19.17h-7.01V348.1z"/>
	<path class="st1" d="M432.5,327.9h7.01v27.82l-30.74-46.99h-35.99v22.54c0,0.86-0.13,1.73-0.36,2.58v46.66h-7.01v19.17h40.91
		v-19.17h-7.01v-33.55l34.25,52.72h32.85V327.9h7.01v-19.17H432.5V327.9z"/>
	<polygon class="st1" points="477.16,327.9 484.17,327.9 484.17,380.51 477.16,380.51 477.16,399.68 557.23,399.68 557.23,362.04 
		531.05,362.04 531.05,380.51 516.9,380.51 516.9,359.7 527.19,359.7 527.19,346.37 516.9,346.37 516.9,327.9 531.05,327.9 
		531.05,344.03 557.23,344.03 557.23,308.73 477.16,308.73 	"/>
	<path class="st1" d="M367.37,303.79c0-1.63-1.16-3.63-2.57-4.45L341,285.6c-0.71-0.41-1.64-0.61-2.57-0.61
		c-0.93,0-1.86,0.2-2.57,0.61l-23.8,13.74c-1.41,0.82-2.57,2.82-2.57,4.45v27.48c0,1.63,1.16,3.63,2.57,4.45l23.8,13.74
		c0.71,0.41,1.64,0.61,2.57,0.61c0.93,0,1.86-0.2,2.57-0.61l23.8-13.74c1.41-0.82,2.57-2.82,2.57-4.45V303.79z M343.46,329.43
		c-0.03,0.03-0.77,0.84-2.13,1.01c-0.14,0.02-0.28,0.03-0.42,0.03c-0.89,0-1.8-0.38-2.39-1.05c-0.58,0.67-1.47,1.05-2.37,1.05
		c-0.15,0-0.29-0.01-0.43-0.03c-1.36-0.17-2.1-0.98-2.13-1.01c-0.22-0.24-0.2-0.61,0.04-0.82c0.24-0.22,0.61-0.2,0.83,0.04
		c0.02,0.02,0.49,0.51,1.41,0.63c0.84,0.11,1.85-0.29,2.05-1.12h0.01l-1.56-1.72h4.27l-1.56,1.72h0.01
		c0.19,0.81,1.22,1.23,2.08,1.12c0.92-0.12,1.4-0.61,1.42-0.64c0.22-0.23,0.59-0.25,0.82-0.03
		C343.66,328.83,343.68,329.19,343.46,329.43z M354.46,327.12c-0.06,0.42-0.21,0.85-0.4,1.27l7.73,1.21l-7.73-1.21
		c-0.34,0.73-0.85,1.41-1.42,1.8l-12.45-5.62c-1.7-7-1.7-6.98-3.73,0l-12.45,5.62c-0.5-0.34-0.95-0.9-1.28-1.52l-7.9,1.24l7.9-1.24
		c-0.22-0.4-0.38-0.82-0.47-1.24h-8.21h8.21c-0.06-0.27-0.11-0.54-0.11-0.79v-0.48l-7.32-1.15l7.32,1.15v-1.87h1.9
		c0.6,0,1.08-0.49,1.08-1.08c0-0.6-0.49-1.08-1.08-1.08h-1.9V321h1.9c0.6,0,1.08-0.49,1.08-1.08c0-0.6-0.49-1.08-1.08-1.08h-1.9
		v-1.12h1.9c0.6,0,1.08-0.49,1.08-1.08c0-0.6-0.49-1.08-1.08-1.08h-1.9v-8.59c0-1.25,0.72-1.55,1.6-0.67l4.25,4.25
		c0.88,0.88,2.62,1.6,3.86,1.6h4.2c1.24,0,3.28,0,4.53,0h4.2c1.25,0,2.98-0.72,3.86-1.6l4.25-4.25c0.88-0.88,1.6-0.58,1.6,0.66v8.6
		h-1.89c-0.6,0-1.08,0.49-1.08,1.08c0,0.6,0.49,1.08,1.08,1.08h1.89v1.12h-1.89c-0.6,0-1.08,0.49-1.08,1.08
		c0,0.6,0.49,1.08,1.08,1.08h1.89v1.12h-1.89c-0.6,0-1.08,0.49-1.08,1.08c0,0.6,0.49,1.08,1.08,1.08h1.89v1.56l7.29-1.14l-7.29,1.14
		v0.8C354.5,326.79,354.48,326.95,354.46,327.12h8.11H354.46z"/>
	<line class="st2" x1="361.79" y1="329.59" x2="354.06" y2="328.38"/>
	<line class="st2" x1="354.5" y1="325.83" x2="361.79" y2="324.69"/>
	<line class="st2" x1="362.57" y1="327.12" x2="354.46" y2="327.12"/>
	<line class="st2" x1="322.73" y1="328.67" x2="314.82" y2="329.9"/>
	<line class="st2" x1="314.82" y1="325" x2="322.15" y2="326.15"/>
	<line class="st2" x1="314.04" y1="327.43" x2="322.25" y2="327.43"/>
	<path class="st0" d="M354.5,325.83v-1.56h-1.89c-0.6,0-1.08-0.49-1.08-1.08c0-0.6,0.49-1.08,1.08-1.08h1.89V321h-1.89
		c-0.6,0-1.08-0.49-1.08-1.08c0-0.6,0.49-1.08,1.08-1.08h1.89v-1.12h-1.89c-0.6,0-1.08-0.49-1.08-1.08c0-0.6,0.49-1.08,1.08-1.08
		h1.89v-8.6c0-1.24-0.72-1.55-1.6-0.66l-4.25,4.25c-0.88,0.88-2.62,1.6-3.86,1.6h-4.2c-1.24,0-3.28,0-4.53,0h-4.2
		c-1.24,0-2.98-0.72-3.86-1.6l-4.25-4.25c-0.88-0.88-1.6-0.58-1.6,0.67v8.59h1.9c0.6,0,1.08,0.49,1.08,1.08
		c0,0.6-0.49,1.08-1.08,1.08h-1.9v1.12h1.9c0.6,0,1.08,0.49,1.08,1.08c0,0.6-0.49,1.08-1.08,1.08h-1.9v1.12h1.9
		c0.6,0,1.08,0.49,1.08,1.08c0,0.6-0.49,1.08-1.08,1.08h-1.9v1.87v0.48c0,0.25,0.04,0.52,0.11,0.79c0.1,0.42,0.26,0.84,0.47,1.24
		c0.33,0.62,0.78,1.18,1.28,1.52l12.45-5.62c2.02-6.98,2.02-7,3.73,0l12.45,5.62c0.57-0.39,1.08-1.07,1.42-1.8
		c0.19-0.42,0.34-0.85,0.4-1.27c0.02-0.16,0.04-0.33,0.04-0.48V325.83z M332.5,323.87c-1.78,0-3.28-1.18-3.74-2.81
		c2.08-0.66,3.67-0.71,4.48-0.1c0.56,0.43,1.04,1.23,1.44,2.24C334.05,323.64,333.3,323.87,332.5,323.87z M344.8,323.87
		c-0.79,0-1.54-0.23-2.18-0.67c0.4-1.01,0.88-1.81,1.44-2.24c0.81-0.62,2.4-0.57,4.48,0.1C348.08,322.69,346.59,323.87,344.8,323.87
		z"/>
	<path class="st1" d="M344.06,320.96c-0.56,0.43-1.04,1.23-1.44,2.24c0.64,0.43,1.39,0.67,2.18,0.67c1.78,0,3.28-1.18,3.74-2.81
		C346.47,320.39,344.87,320.34,344.06,320.96z"/>
	<path class="st1" d="M333.25,320.96c-0.81-0.62-2.4-0.57-4.48,0.1c0.46,1.64,1.96,2.81,3.74,2.81c0.79,0,1.54-0.23,2.18-0.67
		C334.29,322.19,333.81,321.39,333.25,320.96z"/>
	<path class="st0" d="M342.6,328.64c-0.02,0.02-0.5,0.52-1.42,0.64c-0.86,0.11-1.88-0.31-2.08-1.12h-0.01l1.56-1.72h-4.27l1.56,1.72
		h-0.01c-0.2,0.83-1.21,1.23-2.05,1.12c-0.92-0.12-1.39-0.61-1.41-0.63c-0.22-0.24-0.59-0.26-0.83-0.04
		c-0.24,0.21-0.26,0.58-0.04,0.82c0.03,0.03,0.76,0.84,2.13,1.01c0.14,0.02,0.28,0.03,0.43,0.03c0.89,0,1.79-0.37,2.37-1.05
		c0.59,0.67,1.5,1.05,2.39,1.05c0.14,0,0.28-0.01,0.42-0.03c1.37-0.17,2.1-0.98,2.13-1.01c0.21-0.24,0.2-0.6-0.04-0.82
		C343.19,328.39,342.82,328.41,342.6,328.64z"/>
</g>
</svg>
